<svg
  xmlns="http://www.w3.org/2000/svg"
  width="24"
  height="24"
  viewBox="0 0 24 24"
  fill="none"
  stroke="currentColor"
  stroke-width="2"
  stroke-linecap="round"
  stroke-linejoin="round"
>
  <path d="M6 6.5c-1.6-.6-3.2-.2-3.8.9" />
  <path d="M18 6.5c1.6-.6 3.2-.2 3.8.9" />
  <path d="M6 6c0-1.4.7-2.4 1.7-2.4S9.4 4.6 9.4 6" />
  <path d="M18 6c0-1.4-.7-2.4-1.7-2.4S14.6 4.6 14.6 6" />
  <path d="M6 7.5c0 3.6 2.7 6.5 6 6.5s6-2.9 6-6.5" />
  <path d="M8.5 14.2c0 2.1 1.6 3.8 3.5 3.8s3.5-1.7 3.5-3.8" />
  <path d="M10.5 15.8h.01" />
  <path d="M13.5 15.8h.01" />
</svg>
